<?xml version="1.0" standalone="no"?>
<!DOCTYPE svg PUBLIC "-//W3C//DTD SVG 20010904//EN"
 "http://www.w3.org/TR/2001/REC-SVG-20010904/DTD/svg10.dtd">
<svg version="1.0" xmlns="http://www.w3.org/2000/svg"
 width="500.000000pt" height="500.000000pt" viewBox="0 0 500.000000 500.000000"
 preserveAspectRatio="xMidYMid meet">

<g transform="translate(0.000000,500.000000) scale(0.100000,-0.100000)"
fill="#000000" stroke="none">
<path d="M2285 4630 c-503 -56 -942 -266 -1295 -620 -245 -245 -412 -513 -518
-836 -224 -676 -108 -1382 322 -1964 135 -182 375 -401 578 -528 676 -420
1536 -427 2226 -18 276 164 547 430 720 708 100 161 198 386 247 570 172 644
44 1303 -359 1848 -91 123 -295 327 -418 419 -285 212 -619 353 -964 406 -119
19 -427 27 -539 15z m416 -80 c872 -88 1594 -715 1799 -1563 291 -1201 -535
-2389 -1761 -2531 -634 -74 -1253 144 -1704 599 -480 484 -688 1179 -554 1850
132 663 588 1222 1211 1489 318 135 670 190 1009 156z"/>
</g>
</svg>
